<svg xmlns="http://www.w3.org/2000/svg" width="1600" height="900" viewBox="0 0 1600 900" role="img" aria-labelledby="title desc">
  <title id="title">Конфлікт</title>
  <desc id="desc">Editorial cover in the Tinova karta style about escalation, status and control.</desc>
  <defs>
    <linearGradient id="paper" x1="0" y1="0" x2="1" y2="1">
      <stop offset="0" stop-color="#f6efe6"/><stop offset="0.55" stop-color="#eee3d6"/><stop offset="1" stop-color="#e5d8c8"/>
    </linearGradient>
    <radialGradient id="vignette" cx="70%" cy="45%" r="54%">
      <stop offset="0" stop-color="#8f1f31" stop-opacity="0.20"/><stop offset="0.58" stop-color="#8f1f31" stop-opacity="0.055"/><stop offset="1" stop-color="#8f1f31" stop-opacity="0"/>
    </radialGradient>
    <pattern id="grid" width="66" height="66" patternUnits="userSpaceOnUse">
      <path d="M66 0H0V66" fill="none" stroke="#251f1c" stroke-opacity="0.052" stroke-width="1"/>
    </pattern>
    <filter id="soft" x="-20%" y="-20%" width="140%" height="140%">
      <feDropShadow dx="0" dy="20" stdDeviation="18" flood-color="#1b1512" flood-opacity="0.18"/>
    </filter>
  </defs>
  <rect width="1600" height="900" fill="url(#paper)"/><rect width="1600" height="900" fill="url(#grid)"/><rect width="1600" height="900" fill="url(#vignette)"/>
  <path d="M78 128C238 96 354 150 520 118C690 84 820 92 990 134C1168 178 1328 104 1518 88" fill="none" stroke="#241b18" stroke-opacity="0.07" stroke-width="2"/>
  <path d="M88 744C250 700 392 746 548 706C718 664 870 704 1028 654C1194 604 1328 634 1510 586" fill="none" stroke="#241b18" stroke-opacity="0.06" stroke-width="2"/>
  <g opacity="0.34" stroke="#241b18" stroke-width="2" fill="none">
    <path d="M872 176L1248 210L1394 430L1282 704L982 730L780 538L806 300Z"/>
    <path d="M872 176L1048 454L1248 210M806 300L1048 454L780 538M1394 430L1048 454L1282 704M982 730L1048 454" opacity="0.56"/>
  </g>
  <g fill="#8f1f31" opacity="0.68">
    <circle cx="872" cy="176" r="8"/><circle cx="1248" cy="210" r="7"/><circle cx="1394" cy="430" r="9"/><circle cx="1282" cy="704" r="8"/><circle cx="982" cy="730" r="7"/><circle cx="780" cy="538" r="7"/><circle cx="806" cy="300" r="6"/><circle cx="1048" cy="454" r="10"/>
  </g>
  <g filter="url(#soft)">
    <path d="M790 236H1042L974 368L1088 486L1008 684H792Z" fill="#221b18"/>
    <path d="M1214 236H1000L1062 360L948 486L1030 684H1214Z" fill="#221b18" opacity="0.92"/>
    <path d="M1030 210L970 332L1068 424L984 552L1044 706" fill="none" stroke="#8f1f31" stroke-width="18" stroke-linejoin="miter"/>
    <path d="M790 458H970M1068 458H1408" stroke="#8f1f31" stroke-width="8"/>
    <circle cx="790" cy="458" r="8" fill="#8f1f31"/><circle cx="1408" cy="458" r="8" fill="#8f1f31"/>
    <path d="M858 330L948 408M1160 330L1070 408M858 596L948 520M1160 596L1070 520" stroke="#efe5d8" stroke-width="11" stroke-linecap="square" opacity="0.86"/>
    <path d="M766 708H1238" stroke="#221b18" stroke-width="20"/>
  </g>
  <g font-family="Inter, Arial, sans-serif" fill="#171514">
    <text x="74" y="120" font-size="22" font-weight="700" letter-spacing="0.22em" fill="#8f1f31">ТІНЬОВА КАРТА</text>
    <text x="74" y="354" font-size="112" font-weight="900" letter-spacing="-0.01em">Конфлікт</text>
    <text x="78" y="456" font-size="34" font-weight="650" fill="#8f1f31">ескалація • статус • контроль</text>
    <text x="78" y="528" font-size="25" font-weight="500" fill="#3b322d">анатомія прихованої війни за реальність</text>
  </g>
  <path d="M76 642H438" stroke="#8f1f31" stroke-width="8"/><path d="M76 674H262" stroke="#241b18" stroke-opacity="0.18" stroke-width="3"/>
  <g font-family="Inter, Arial, sans-serif" font-size="18" font-weight="700" letter-spacing="0.18em" fill="#241b18" opacity="0.46">
    <text x="1240" y="320">РОЗКОЛ</text><text x="1228" y="724">ЕСКАЛАЦІЯ</text><text x="806" y="744">ЛІНІЯ ФРОНТУ</text>
  </g>
</svg>
