<svg xmlns="http://www.w3.org/2000/svg" width="1200" height="675" viewBox="0 0 1200 675" role="img" aria-labelledby="title desc">
  <title id="title">Чому невизначеність викликає сильніші емоції, ніж стабільність</title>
  <desc id="desc">Автоматична editorial SVG-обкладинка для матеріалу “Чому невизначеність викликає сильніші емоції, ніж стабільність”.</desc>
  <rect width="1200" height="675" fill="#f7efe4"/>
  <path d="M0 132h1200M0 356h1200M0 580h1200M188 0v675M612 0v675M1036 0v675" stroke="#cbb9aa" stroke-width="1" opacity=".28"/>
  <rect x="58" y="58" width="1084" height="559" fill="none" stroke="#cbb9aa" stroke-width="2"/>
  <path d="M92 116h130" stroke="#8f1f2e" stroke-width="8" stroke-linecap="round"/>
  <text x="92" y="162" font-family="Inter, Arial, sans-serif" font-size="24" font-weight="900" letter-spacing="8" fill="#8f1f2e">СТОСУНКИ</text>
  <text x="92" y="210" font-family="Inter, Arial, sans-serif" font-size="18" font-weight="800" letter-spacing="5" fill="#4a3934">ВІРУСНА ЗАМІТКА</text>
  <text x="92" y="278" font-family="Inter, Arial, sans-serif" font-size="62" font-weight="900" fill="#211917">Чому невизначеність</text>
  <text x="92" y="352" font-family="Inter, Arial, sans-serif" font-size="62" font-weight="900" fill="#211917">викликає сильніші</text>
  <text x="92" y="426" font-family="Inter, Arial, sans-serif" font-size="62" font-weight="900" fill="#211917">емоції,</text>
  <path d="M704 246c82-114 202-114 284 0M704 246c82 114 202 114 284 0" fill="none" stroke="#211917" stroke-width="10"/><circle cx="988" cy="246" r="18" fill="#8f1f2e"/>
  <text x="92" y="558" font-family="Inter, Arial, sans-serif" font-size="24" font-weight="800" fill="#4a3934">Людський механізм</text>
</svg>
