<svg xmlns="http://www.w3.org/2000/svg" width="1600" height="900" viewBox="0 0 1600 900" role="img" aria-labelledby="title desc">
  <title id="title">Маніпуляція</title>
  <desc id="desc">Editorial cover in the Tinova karta style about hidden influence, signals and control.</desc>
  <defs>
    <linearGradient id="paper" x1="0" y1="0" x2="1" y2="1">
      <stop offset="0" stop-color="#f6efe6"/>
      <stop offset="0.54" stop-color="#eee3d6"/>
      <stop offset="1" stop-color="#e5d8c8"/>
    </linearGradient>
    <radialGradient id="vignette" cx="70%" cy="45%" r="54%">
      <stop offset="0" stop-color="#8f1f31" stop-opacity="0.20"/>
      <stop offset="0.58" stop-color="#8f1f31" stop-opacity="0.055"/>
      <stop offset="1" stop-color="#8f1f31" stop-opacity="0"/>
    </radialGradient>
    <pattern id="grid" width="66" height="66" patternUnits="userSpaceOnUse">
      <path d="M66 0H0V66" fill="none" stroke="#251f1c" stroke-opacity="0.052" stroke-width="1"/>
    </pattern>
    <filter id="soft" x="-20%" y="-20%" width="140%" height="140%">
      <feDropShadow dx="0" dy="20" stdDeviation="18" flood-color="#1b1512" flood-opacity="0.18"/>
    </filter>
  </defs>
  <rect width="1600" height="900" fill="url(#paper)"/>
  <rect width="1600" height="900" fill="url(#grid)"/>
  <rect width="1600" height="900" fill="url(#vignette)"/>
  <path d="M78 128C230 96 346 150 512 118C682 84 818 92 988 134C1168 178 1326 104 1518 88" fill="none" stroke="#241b18" stroke-opacity="0.07" stroke-width="2"/>
  <path d="M88 744C250 700 392 746 548 706C718 664 870 704 1028 654C1194 604 1328 634 1510 586" fill="none" stroke="#241b18" stroke-opacity="0.06" stroke-width="2"/>
  <g opacity="0.34" stroke="#241b18" stroke-width="2" fill="none">
    <path d="M878 180L1246 210L1394 430L1282 704L982 730L780 538L806 300Z"/>
    <path d="M878 180L1046 454L1246 210M806 300L1046 454L780 538M1394 430L1046 454L1282 704M982 730L1046 454" opacity="0.56"/>
  </g>
  <g fill="#8f1f31" opacity="0.68">
    <circle cx="878" cy="180" r="8"/>
    <circle cx="1246" cy="210" r="7"/>
    <circle cx="1394" cy="430" r="9"/>
    <circle cx="1282" cy="704" r="8"/>
    <circle cx="982" cy="730" r="7"/>
    <circle cx="780" cy="538" r="7"/>
    <circle cx="806" cy="300" r="6"/>
    <circle cx="1046" cy="454" r="10"/>
  </g>
  <g filter="url(#soft)">
    <path d="M1018 226C1162 226 1264 326 1264 456C1264 588 1162 684 1018 684C874 684 772 588 772 456C772 326 874 226 1018 226Z" fill="#221b18"/>
    <path d="M1018 286C1094 286 1152 342 1152 456C1152 570 1094 626 1018 626C942 626 884 570 884 456C884 342 942 286 1018 286Z" fill="#efe5d8"/>
    <path d="M1018 286C1094 286 1152 342 1152 456C1152 570 1094 626 1018 626C1078 584 1094 514 1082 450C1070 382 1034 326 1018 286Z" fill="#8f1f31" opacity="0.92"/>
    <path d="M942 414H942.5M1094 414H1094.5" stroke="#221b18" stroke-width="24" stroke-linecap="round"/>
    <path d="M950 520C990 548 1040 548 1080 520" fill="none" stroke="#221b18" stroke-width="14" stroke-linecap="round"/>
    <path d="M1018 204V90M956 232L910 114M1080 232L1126 114" stroke="#8f1f31" stroke-width="8" stroke-linecap="square"/>
    <circle cx="1018" cy="90" r="9" fill="#8f1f31"/>
    <circle cx="910" cy="114" r="8" fill="#8f1f31"/>
    <circle cx="1126" cy="114" r="8" fill="#8f1f31"/>
    <path d="M764 458H884M1152 458H1410" stroke="#8f1f31" stroke-width="8"/>
    <circle cx="764" cy="458" r="8" fill="#8f1f31"/>
    <circle cx="1410" cy="458" r="8" fill="#8f1f31"/>
  </g>
  <g font-family="Inter, Arial, sans-serif" fill="#171514">
    <text x="74" y="120" font-size="22" font-weight="700" letter-spacing="0.22em" fill="#8f1f31">ТІНЬОВА КАРТА</text>
    <text x="74" y="354" font-size="104" font-weight="900" letter-spacing="-0.01em">Маніпуляція</text>
    <text x="78" y="456" font-size="34" font-weight="650" fill="#8f1f31">вплив • сигнали • контроль</text>
    <text x="78" y="528" font-size="25" font-weight="500" fill="#3b322d">анатомія непрямої боротьби за поведінку</text>
  </g>
  <path d="M76 642H438" stroke="#8f1f31" stroke-width="8"/>
  <path d="M76 674H262" stroke="#241b18" stroke-opacity="0.18" stroke-width="3"/>
  <g font-family="Inter, Arial, sans-serif" font-size="18" font-weight="700" letter-spacing="0.18em" fill="#241b18" opacity="0.46">
    <text x="1230" y="318">СИГНАЛ</text>
    <text x="1248" y="648">ТІНЬ</text>
    <text x="820" y="746">ПОДВІЙНЕ ПОСЛАННЯ</text>
  </g>
</svg>
