<svg xmlns="http://www.w3.org/2000/svg" width="1600" height="900" viewBox="0 0 1600 900" role="img" aria-labelledby="title desc">
  <title id="title">Переговори і домінування</title>
  <desc id="desc">Editorial cover in the Tinova karta style about frame, status and control in negotiations.</desc>
  <defs>
    <linearGradient id="paper" x1="0" y1="0" x2="1" y2="1">
      <stop offset="0" stop-color="#f6efe6"/>
      <stop offset="0.55" stop-color="#eee3d6"/>
      <stop offset="1" stop-color="#e5d8c8"/>
    </linearGradient>
    <radialGradient id="vignette" cx="70%" cy="45%" r="54%">
      <stop offset="0" stop-color="#8f1f31" stop-opacity="0.20"/>
      <stop offset="0.58" stop-color="#8f1f31" stop-opacity="0.055"/>
      <stop offset="1" stop-color="#8f1f31" stop-opacity="0"/>
    </radialGradient>
    <pattern id="grid" width="66" height="66" patternUnits="userSpaceOnUse">
      <path d="M66 0H0V66" fill="none" stroke="#251f1c" stroke-opacity="0.052" stroke-width="1"/>
    </pattern>
    <filter id="soft" x="-20%" y="-20%" width="140%" height="140%">
      <feDropShadow dx="0" dy="20" stdDeviation="18" flood-color="#1b1512" flood-opacity="0.18"/>
    </filter>
  </defs>
  <rect width="1600" height="900" fill="url(#paper)"/>
  <rect width="1600" height="900" fill="url(#grid)"/>
  <rect width="1600" height="900" fill="url(#vignette)"/>
  <path d="M76 138C226 96 360 150 506 116C682 76 814 96 974 132C1160 174 1328 102 1520 86" fill="none" stroke="#241b18" stroke-opacity="0.07" stroke-width="2"/>
  <path d="M86 748C252 698 396 744 548 706C718 664 866 704 1028 654C1194 604 1326 634 1510 586" fill="none" stroke="#241b18" stroke-opacity="0.06" stroke-width="2"/>
  <g opacity="0.36" stroke="#241b18" stroke-width="2" fill="none">
    <path d="M878 178L1246 206L1394 432L1282 704L982 730L780 538L806 300Z"/>
    <path d="M878 178L1046 454L1246 206M806 300L1046 454L780 538M1394 432L1046 454L1282 704M982 730L1046 454" opacity="0.55"/>
  </g>
  <g fill="#8f1f31" opacity="0.68">
    <circle cx="878" cy="178" r="8"/>
    <circle cx="1246" cy="206" r="7"/>
    <circle cx="1394" cy="432" r="9"/>
    <circle cx="1282" cy="704" r="8"/>
    <circle cx="982" cy="730" r="7"/>
    <circle cx="780" cy="538" r="7"/>
    <circle cx="806" cy="300" r="6"/>
    <circle cx="1046" cy="454" r="10"/>
  </g>
  <g filter="url(#soft)">
    <path d="M830 592H1340" stroke="#221b18" stroke-width="22" stroke-linecap="square"/>
    <ellipse cx="1084" cy="582" rx="254" ry="72" fill="#221b18"/>
    <path d="M1084 486L1140 584H1028Z" fill="#8f1f31"/>
    <path d="M1084 250C1144 250 1190 298 1190 360C1190 420 1144 470 1084 470C1024 470 978 420 978 360C978 298 1024 250 1084 250Z" fill="#221b18"/>
    <path d="M1074 272C1118 294 1138 332 1134 386C1130 432 1104 456 1084 470C1144 470 1190 420 1190 360C1190 298 1144 250 1084 250C1054 250 1026 262 1006 282C1030 270 1052 268 1074 272Z" fill="#8f1f31" opacity="0.86"/>
    <path d="M804 438L978 438M1190 438L1406 438" stroke="#8f1f31" stroke-width="10"/>
    <circle cx="804" cy="438" r="9" fill="#8f1f31"/>
    <circle cx="1406" cy="438" r="9" fill="#8f1f31"/>
    <path d="M896 518C938 486 984 478 1030 494" fill="none" stroke="#efe5d8" stroke-width="10" stroke-linecap="round"/>
    <path d="M1168 494C1218 474 1264 482 1308 522" fill="none" stroke="#efe5d8" stroke-width="10" stroke-linecap="round"/>
  </g>
  <g font-family="Inter, Arial, sans-serif" fill="#171514">
    <text x="74" y="120" font-size="22" font-weight="700" letter-spacing="0.22em" fill="#8f1f31">ТІНЬОВА КАРТА</text>
    <text x="74" y="300" font-size="88" font-weight="900" letter-spacing="-0.01em">Переговори</text>
    <text x="74" y="404" font-size="78" font-weight="900" letter-spacing="-0.01em">і домінування</text>
    <text x="78" y="492" font-size="34" font-weight="650" fill="#8f1f31">рамка • статус • контроль</text>
    <text x="78" y="560" font-size="25" font-weight="500" fill="#3b322d">анатомія прихованої боротьби за реальність</text>
  </g>
  <path d="M76 642H438" stroke="#8f1f31" stroke-width="8"/>
  <path d="M76 674H262" stroke="#241b18" stroke-opacity="0.18" stroke-width="3"/>
  <g font-family="Inter, Arial, sans-serif" font-size="18" font-weight="700" letter-spacing="0.18em" fill="#241b18" opacity="0.46">
    <text x="1258" y="314">РАМКА</text>
    <text x="1246" y="644">СТАТУС</text>
    <text x="820" y="746">КОНТРОЛЬ</text>
  </g>
</svg>
