<svg xmlns="http://www.w3.org/2000/svg" width="1600" height="900" viewBox="0 0 1600 900" role="img" aria-labelledby="title desc">
  <title id="title">Соціальні ліфти</title>
  <desc id="desc">Editorial cover in the Tinova karta style about access, status and social movement.</desc>
  <defs>
    <linearGradient id="paper" x1="0" y1="0" x2="1" y2="1">
      <stop offset="0" stop-color="#f5efe6"/>
      <stop offset="0.52" stop-color="#eee4d8"/>
      <stop offset="1" stop-color="#e7dccf"/>
    </linearGradient>
    <radialGradient id="shadow" cx="68%" cy="46%" r="54%">
      <stop offset="0" stop-color="#3d1017" stop-opacity="0.22"/>
      <stop offset="0.58" stop-color="#3d1017" stop-opacity="0.06"/>
      <stop offset="1" stop-color="#3d1017" stop-opacity="0"/>
    </radialGradient>
    <pattern id="grid" width="64" height="64" patternUnits="userSpaceOnUse">
      <path d="M64 0H0V64" fill="none" stroke="#251f1c" stroke-opacity="0.055" stroke-width="1"/>
    </pattern>
    <filter id="soft" x="-20%" y="-20%" width="140%" height="140%">
      <feDropShadow dx="0" dy="18" stdDeviation="16" flood-color="#1b1512" flood-opacity="0.18"/>
    </filter>
  </defs>
  <rect width="1600" height="900" fill="url(#paper)"/>
  <rect width="1600" height="900" fill="url(#grid)"/>
  <rect width="1600" height="900" fill="url(#shadow)"/>
  <path d="M80 120C230 98 318 152 452 122C614 85 704 56 852 108C992 157 1100 85 1235 112C1378 141 1474 112 1530 92" fill="none" stroke="#241b18" stroke-opacity="0.075" stroke-width="2"/>
  <path d="M78 742C238 690 360 760 512 716C704 660 820 704 1000 660C1190 614 1312 652 1518 606" fill="none" stroke="#241b18" stroke-opacity="0.06" stroke-width="2"/>
  <g opacity="0.42" stroke="#241b18" stroke-width="2" fill="none">
    <path d="M1042 158L1268 250L1178 424L1352 548L1210 734L948 640L832 470L910 272Z"/>
    <path d="M910 272L1178 424L1042 158M832 470L1178 424L948 640M1268 250L1352 548L1178 424M1210 734L1178 424" opacity="0.55"/>
  </g>
  <g fill="#8f1f31" opacity="0.72">
    <circle cx="1042" cy="158" r="9"/>
    <circle cx="1268" cy="250" r="8"/>
    <circle cx="1178" cy="424" r="10"/>
    <circle cx="1352" cy="548" r="7"/>
    <circle cx="1210" cy="734" r="8"/>
    <circle cx="948" cy="640" r="7"/>
    <circle cx="832" cy="470" r="7"/>
    <circle cx="910" cy="272" r="6"/>
  </g>
  <g filter="url(#soft)">
    <rect x="930" y="245" width="260" height="430" rx="4" fill="#221b18"/>
    <rect x="958" y="278" width="204" height="364" rx="2" fill="#efe5d8" stroke="#8f1f31" stroke-width="10"/>
    <path d="M1060 612V338" stroke="#8f1f31" stroke-width="12"/>
    <path d="M1014 398H1106M1014 474H1106M1014 550H1106" stroke="#221b18" stroke-opacity="0.8" stroke-width="8"/>
    <path d="M1060 338L1014 390M1060 338L1106 390" stroke="#8f1f31" stroke-width="12" stroke-linecap="square"/>
    <path d="M904 676H1218" stroke="#8f1f31" stroke-width="12"/>
  </g>
  <g font-family="Inter, Arial, sans-serif" fill="#171514">
    <text x="74" y="120" font-size="22" font-weight="700" letter-spacing="0.22em" fill="#8f1f31">ТІНЬОВА КАРТА</text>
    <text x="74" y="328" font-size="96" font-weight="900" letter-spacing="-0.01em">Соціальні</text>
    <text x="74" y="430" font-size="104" font-weight="900" letter-spacing="-0.01em">ліфти</text>
    <text x="78" y="504" font-size="34" font-weight="650" fill="#8f1f31">доступ • статус • рух</text>
    <text x="78" y="568" font-size="25" font-weight="500" fill="#3b322d">карта прихованих механік підйому</text>
  </g>
  <path d="M76 642H422" stroke="#8f1f31" stroke-width="8"/>
  <path d="M76 674H252" stroke="#241b18" stroke-opacity="0.18" stroke-width="3"/>
  <g font-family="Inter, Arial, sans-serif" font-size="18" font-weight="700" letter-spacing="0.18em" fill="#241b18" opacity="0.48">
    <text x="1238" y="334">РЕПУТАЦІЯ</text>
    <text x="1284" y="604">ДОПУСК</text>
    <text x="884" y="742">СИМВОЛІЧНИЙ КАПІТАЛ</text>
  </g>
</svg>
