<svg xmlns="http://www.w3.org/2000/svg" width="1600" height="900" viewBox="0 0 1600 900" role="img" aria-labelledby="title desc">
  <title id="title">Токсична ввічливість</title>
  <desc id="desc">Editorial cover in the Tinova karta style about politeness, fear and sabotage.</desc>
  <defs>
    <linearGradient id="paper" x1="0" y1="0" x2="1" y2="1">
      <stop offset="0" stop-color="#f6efe6"/>
      <stop offset="0.56" stop-color="#eee3d6"/>
      <stop offset="1" stop-color="#e7dacb"/>
    </linearGradient>
    <radialGradient id="warm" cx="69%" cy="44%" r="50%">
      <stop offset="0" stop-color="#8f1f31" stop-opacity="0.18"/>
      <stop offset="0.62" stop-color="#8f1f31" stop-opacity="0.045"/>
      <stop offset="1" stop-color="#8f1f31" stop-opacity="0"/>
    </radialGradient>
    <pattern id="grid" width="68" height="68" patternUnits="userSpaceOnUse">
      <path d="M68 0H0V68" fill="none" stroke="#251f1c" stroke-opacity="0.052" stroke-width="1"/>
    </pattern>
    <filter id="soft" x="-20%" y="-20%" width="140%" height="140%">
      <feDropShadow dx="0" dy="18" stdDeviation="18" flood-color="#1b1512" flood-opacity="0.16"/>
    </filter>
  </defs>
  <rect width="1600" height="900" fill="url(#paper)"/>
  <rect width="1600" height="900" fill="url(#grid)"/>
  <rect width="1600" height="900" fill="url(#warm)"/>
  <path d="M78 134C230 92 340 152 486 120C654 84 770 88 944 126C1118 164 1300 108 1516 86" fill="none" stroke="#241b18" stroke-opacity="0.07" stroke-width="2"/>
  <path d="M88 738C248 696 386 744 530 708C704 664 854 704 1008 650C1176 590 1328 632 1510 584" fill="none" stroke="#241b18" stroke-opacity="0.06" stroke-width="2"/>
  <g opacity="0.36" stroke="#241b18" stroke-width="2" fill="none">
    <path d="M934 188L1250 220L1372 426L1280 666L1040 732L834 610L812 344Z"/>
    <path d="M934 188L1058 466L1250 220M812 344L1058 466L834 610M1372 426L1058 466L1280 666M1040 732L1058 466" opacity="0.58"/>
  </g>
  <g fill="#8f1f31" opacity="0.68">
    <circle cx="934" cy="188" r="8"/>
    <circle cx="1250" cy="220" r="7"/>
    <circle cx="1372" cy="426" r="9"/>
    <circle cx="1280" cy="666" r="8"/>
    <circle cx="1040" cy="732" r="7"/>
    <circle cx="834" cy="610" r="7"/>
    <circle cx="812" cy="344" r="6"/>
    <circle cx="1058" cy="466" r="10"/>
  </g>
  <g filter="url(#soft)">
    <path d="M1032 228C1164 228 1264 328 1264 456C1264 586 1164 682 1032 682C900 682 800 586 800 456C800 328 900 228 1032 228Z" fill="#221b18"/>
    <path d="M865 438C912 382 976 354 1032 354C1088 354 1152 382 1199 438" fill="none" stroke="#efe5d8" stroke-width="26" stroke-linecap="round"/>
    <path d="M910 512C960 562 1104 562 1154 512" fill="none" stroke="#8f1f31" stroke-width="22" stroke-linecap="round"/>
    <path d="M950 422H950.5M1114 422H1114.5" stroke="#efe5d8" stroke-width="26" stroke-linecap="round"/>
    <path d="M1192 258L858 666" stroke="#8f1f31" stroke-width="18" stroke-linecap="square"/>
    <path d="M1100 322L1164 380M1118 566L1192 624" stroke="#efe5d8" stroke-opacity="0.48" stroke-width="10" stroke-linecap="round"/>
    <path d="M742 456H800M1264 456H1404" stroke="#8f1f31" stroke-width="8" stroke-linecap="square"/>
    <circle cx="742" cy="456" r="8" fill="#8f1f31"/>
    <circle cx="1404" cy="456" r="8" fill="#8f1f31"/>
  </g>
  <g font-family="Inter, Arial, sans-serif" fill="#171514">
    <text x="74" y="120" font-size="22" font-weight="700" letter-spacing="0.22em" fill="#8f1f31">ТІНЬОВА КАРТА</text>
    <text x="74" y="318" font-size="92" font-weight="900" letter-spacing="-0.01em">Токсична</text>
    <text x="74" y="418" font-size="94" font-weight="900" letter-spacing="-0.01em">ввічливість</text>
    <text x="78" y="500" font-size="34" font-weight="650" fill="#8f1f31">усмішка • страх • саботаж</text>
    <text x="78" y="566" font-size="25" font-weight="500" fill="#3b322d">коли м’якість працює проти правди</text>
  </g>
  <path d="M76 642H430" stroke="#8f1f31" stroke-width="8"/>
  <path d="M76 674H262" stroke="#241b18" stroke-opacity="0.18" stroke-width="3"/>
  <g font-family="Inter, Arial, sans-serif" font-size="18" font-weight="700" letter-spacing="0.18em" fill="#241b18" opacity="0.46">
    <text x="1246" y="318">ФАСАД</text>
    <text x="1262" y="620">МОВЧАННЯ</text>
    <text x="842" y="744">ПАСИВНА АГРЕСІЯ</text>
  </g>
</svg>
